<svg width="78" height="95" viewBox="0 0 78 95" fill="none" xmlns="http://www.w3.org/2000/svg">
<path d="M31.1689 1.99899e-05C29.5569 0.0037033 27.7908 0.511435 25.9486 1.52732C21.5271 3.96539 17.6836 2.07557 18.169 6.51665C18.5767 10.2464 17.0254 11.0712 18.1645 12.0504C19.8719 13.5181 22.5754 12.5872 27.7313 5.78623C27.2243 6.50206 26.5572 7.60465 26.1295 8.74336C27.8043 9.16071 29.4079 10.7256 29.9157 11.9265C27.5588 9.66107 25.7294 9.72907 24.1658 12.5064C25.4525 12.8376 26.6021 13.1724 27.6167 14.627C24.7674 13.049 20.8446 14.9104 20.5871 17.7083C21.868 16.6597 23.7871 16.5316 24.6204 17.0487C23.9508 16.9741 22.7308 17.5877 22.4626 18.6778C25.1244 17.9341 30.3691 20.2391 28.1197 26.3676C27.0517 13.7197 10.6146 19.6795 11.8984 41.5834C9.16211 43.101 7.22672 46.5673 9.19346 52.5758C10.4526 56.4222 13.144 58.1664 15.9538 58.5877C18.6174 64.5933 22.09 68.3292 25.4059 70.1645C25.1047 71.8536 23.2634 76.3429 18.0542 75.9728C19.5303 71.9128 14.353 72.4008 15.8788 75.9463C15.1469 76.3434 13.7622 76.5744 13.112 75.9949C14.5838 72.0148 9.54605 72.311 10.8262 75.9063C9.93988 76.3255 8.80683 76.3434 8.17408 75.9109C9.99679 72.9151 4.9448 71.6906 5.98988 75.8665C5.20151 76.3683 4.33634 76.5042 3.44814 75.9196C4.60124 72.8478 2.19535 72.7903 1.44469 73.8611C0.432932 75.3048 2.16527 80.3214 6.92976 77.6196C8.42825 78.6904 10.4025 78.6197 11.9381 77.5842C13.0799 78.849 15.766 78.5056 16.854 77.54C21.815 80.2291 27.1671 73.9009 27.6784 71.1428C34.2174 73.1475 39.1409 67.5738 34.0902 57.7377C42.5216 58.4188 46.6598 50.7698 48.0432 46.586C45.9268 47.7151 44.5582 49.2114 43.3393 50.6544C40.8759 53.5706 39.024 56.2758 32.8501 55.3383C31.2122 52.3146 27.6363 53.253 24.7793 54.7627C25.2359 53.4904 24.8585 52.0786 23.1597 50.7917C23.832 49.7068 23.7898 48.3583 23.1994 47.2854C23.4231 47.4713 23.6408 47.6212 23.932 47.7414C23.3155 45.6971 23.7945 41.9687 25.0131 40.8219C25.8255 42.8858 26.9266 44.5722 30.3393 45.1915C24.5549 53.2323 39.2636 58.8685 41.3535 48.3302C53.3449 38.7886 47.1847 34.1078 44.9146 37.7938C44.2978 38.7952 39.2833 46.778 32.4088 42.2253C28.523 44.9647 23.5036 38.5341 27.983 32.5699C30.3745 29.3855 31.196 24.0389 31.1336 23.2155C31.4049 23.1113 31.9677 22.7537 32.2236 22.5293C31.8667 23.8216 33.3647 24.1594 33.9048 23.8795C37.9118 18.1473 31.1287 17.7743 30.2731 22.3966C29.914 12.4183 40.6497 14.279 37.4086 19.7668C37.3936 19.792 30.072 31.1002 30.0745 31.1001C30.8299 31.0433 31.538 30.8578 32.7531 30.9097C32.7926 30.9114 40.4838 19.2898 40.5195 19.24C46.4141 11.0196 55.5398 20.2313 51.5734 25.6238C54.9036 26.9904 57.7423 30.6833 58.2278 32.9374C55.8057 29.7623 51.61 27.9367 48.3522 29.9757C55.0547 30.6762 58.5707 37.9979 58.113 41.424C53.605 33.2504 50.5176 36.648 51.5734 37.5105C53.3433 38.9562 55.7625 39.9089 56.0302 45.9175C52.5052 40.2101 48.7324 41.9381 51.1278 44.1023C51.7139 44.632 56.411 49.6707 52.1117 56.6354C50.6858 58.9455 54.0784 60.2496 56.5554 52.9698C55.3843 60.7848 52.1891 59.982 52.2574 61.5627C52.4197 65.315 64.0933 56.4305 61.9654 44.4211C69.3773 65.7465 50.4115 69.7718 49.9672 70.7222C48.3159 74.2542 62.3039 70.8023 66.9827 58.4151C67.9092 69.9598 60.6526 75.2693 60.4828 76.1543C59.5665 80.9263 74.4534 68.534 71.2322 52.3323C75.0152 61.1208 69.6861 66.2338 71.9646 66.521C76.4755 67.0895 84.4696 29.2683 60.2136 20.7408C63.7181 19.9109 70.4544 23.225 72.7149 28.2093C73.3427 23.6618 68.6158 18.1116 65.1779 17.996C66.7095 17.6452 68.046 17.6016 70.076 19.5543C68.7722 14.9088 62.8036 13.6943 59.3531 15.1316C60.0706 13.844 63.5029 13.3185 64.4806 13.6C63.5122 12.8639 62.3848 11.0893 62.1199 10.0052C60.8396 9.40536 58.703 9.86748 57.8968 10.4479C58.5565 9.63685 59.9198 8.42121 62.0714 8.61062C61.6045 8.03602 61.0794 6.76712 60.9637 6.32186C67.3004 16.9725 71.7654 13.4613 70.7423 11.0145C69.7947 8.74818 71.8018 6.88059 70.3849 4.89189C68.719 2.55341 67.6794 4.73053 62.0757 1.27501C56.5347 -2.14197 50.7401 2.23423 50.3335 7.6854C45.2011 7.20728 42.073 10.8453 41.3579 13.0642C41.2006 10.0685 43.4694 7.69517 44.6102 7.0258C42.7716 6.71244 40.9311 6.52147 38.6749 7.30913C37.5094 2.4303 34.7155 -0.00805497 31.1689 1.99899e-05ZM46.6885 20.7097C43.7467 20.9319 43.9016 24.5677 43.4849 25.8141C44.3011 24.378 48.9705 26.4568 48.0123 23.2597C48.6345 24.2487 49.5814 24.5833 50.9556 24.9553C50.3826 24.5398 49.7147 20.4812 46.6885 20.7097ZM33.309 20.9843C33.5416 20.9843 33.7327 21.1716 33.7327 21.4049C33.7327 21.6381 33.5416 21.8299 33.309 21.8299C33.0766 21.8299 32.8899 21.6381 32.8899 21.4049C32.8899 21.1716 33.0766 20.9843 33.309 20.9843ZM21.8625 21.9891C22.5307 21.9802 24.0951 22.1182 24.7969 22.1751C22.7216 26.5267 23.296 32.1021 24.4659 35.3722C23.6973 35.3747 22.5452 35.3795 21.6108 35.3855C20.3097 32.2249 19.9665 25.9988 21.8625 21.9891ZM46.1589 22.4009C46.3915 22.4009 46.5826 22.5882 46.5826 22.8216C46.5826 23.0547 46.3915 23.2466 46.1589 23.2466C45.9265 23.2466 45.7397 23.0547 45.7398 22.8216C45.7398 22.5882 45.9265 22.4009 46.1589 22.4009ZM19.2103 23.5874C18.1056 26.2952 18.1031 31.3974 19.2192 34.7834C17.8934 34.9412 16.351 33.6341 15.7993 33.1365C15.7366 33.944 16.7138 36.0503 17.6395 36.7578C17.3911 37.9396 17.2933 39.3822 17.2776 40.9238C16.2939 40.6397 15.1473 40.5882 13.9901 40.8263C13.8304 33.6335 15.4063 26.9874 19.2103 23.5874ZM31.5175 33.1011C29.1643 33.0915 27.0237 34.168 27.4578 36.6074C28.5775 42.899 34.5631 42.7073 36.623 37.9311C37.9206 34.9222 34.5429 33.1136 31.5175 33.1011ZM19.6914 37.6655C20.6865 37.7802 22.7059 37.8202 23.6936 37.6786C22.1644 39.3307 20.6354 43.5821 22.5243 46.3911C21.8001 45.7238 20.7512 45.3357 19.4443 45.4925C19.9858 44.8781 19.9303 42.934 19.2854 42.1323C19.2914 40.4651 19.4193 38.9263 19.6914 37.6655ZM15.6979 42.7123C16.85 42.6775 17.7406 43.1842 17.6923 44.2573C17.6007 46.2989 14.1346 43.7625 11.4307 50.6013C9.3526 45.4959 13.1629 42.7888 15.6979 42.7123ZM42.0772 43.8589C41.869 44.1349 41.7715 44.7636 41.6712 45.2402C36.9775 47.5362 41.1209 48.901 37.0731 51.4202C34.4215 53.0706 27.9408 50.4549 33.0222 45.0098C36.5707 46.7346 40.6924 45.0508 42.0772 43.8589ZM18.9059 47.3298C20.7262 47.3422 22.1274 48.1568 21.4388 49.5477C20.5636 51.3157 16.7911 48.172 14.0871 55.0106C11.6794 49.5185 15.8722 47.3088 18.9059 47.3298ZM20.8211 52.2039C21.9807 52.2933 22.8683 52.9567 22.723 54.2093C22.5733 55.4977 18.7686 56.7623 16.2406 56.4494C16.1948 53.498 18.8883 52.0547 20.8211 52.2039ZM30.0833 55.4401C29.6437 59.5626 31.4587 65.2063 33.5121 68.1236C32.8299 68.5478 32.0191 68.8987 31.2572 68.947C29.1993 67.0766 26.5802 60.6126 27.4049 55.8385C28.0927 55.5607 29.253 55.4086 30.0833 55.4401ZM25.3617 56.8214C24.9836 60.1569 25.8644 65.5154 28.6801 69.2747C24.1698 68.658 20.4454 64.3967 17.8688 58.6541C18.848 58.6031 19.7974 58.4253 20.6755 58.1229C20.9603 58.758 21.257 59.3707 21.5712 59.9247C22.4313 58.4269 23.5194 57.4909 25.3617 56.8214Z" fill="white"/>
<path d="M40.8067 65.0061C40.8067 64.1567 41.4931 63.468 42.3397 63.468C43.1863 63.468 43.8727 64.1567 43.8727 65.0061C43.8727 65.8554 43.1863 66.544 42.3397 66.544C41.4931 66.544 40.8067 65.8554 40.8067 65.0061Z" fill="white"/>
<path d="M41.572 68.4823C40.7253 68.4823 40.0407 69.1691 40.0407 70.0185C40.0407 70.868 40.7253 71.5591 41.572 71.5591H43.1032C43.9498 71.5591 44.6389 70.868 44.6389 70.0185C44.6389 69.1691 43.9498 68.4823 43.1032 68.4823H41.572Z" fill="white"/>
<path d="M20.9578 33.0835C21.1328 33.941 21.3447 34.7393 21.6108 35.3856C22.5451 35.3796 23.6973 35.3748 24.4658 35.3723C24.2261 34.702 24.0246 33.9172 23.8526 33.0835H20.9578Z" fill="#C8C8C8"/>
<path d="M40.8063 73.476C39.9596 73.476 39.275 74.1671 39.275 75.0166C39.275 75.866 39.9596 76.5528 40.8063 76.5528H43.8732C44.7198 76.5528 45.4043 75.866 45.4043 75.0166C45.4043 74.1671 44.7198 73.476 43.8732 73.476H40.8063Z" fill="white"/>
<path d="M20.393 61.2396C20.2682 61.8562 20.275 62.5064 20.3752 63.1654C22.66 66.5228 25.4663 68.8353 28.6801 69.2748C27.9242 68.2655 27.3167 67.1373 26.8267 65.9677C24.6223 65.6276 22.3455 64.2986 20.393 61.2396ZM31.919 65.1709C31.1039 65.5383 30.2154 65.8273 29.2758 65.9677C29.9116 67.2771 30.607 68.3564 31.2571 68.9471C32.0191 68.8988 32.8299 68.5479 33.5121 68.1237C32.9468 67.3208 32.406 66.2984 31.919 65.1709Z" fill="#C8C8C8"/>
<path d="M48.0432 46.5861C46.7824 50.399 43.2227 57.0705 36.2214 57.7112L36.2083 60.5756C36.2083 60.5756 49.0467 59.2343 48.0432 46.5861Z" fill="#C8C8C8"/>
<path d="M34.8756 45.5854C34.5299 46.7713 34.0258 48.6886 34.527 48.9367C34.975 49.1585 35.9289 46.7899 36.345 45.7227C35.8591 45.7224 35.3694 45.6767 34.8756 45.5854Z" fill="#C8C8C8"/>
<path d="M2.49316 86.5933C3.01436 86.3735 3.547 86.2635 4.09093 86.2635C4.64249 86.2635 5.17131 86.3735 5.67754 86.5933C6.16852 86.7979 6.60301 87.0897 6.98074 87.4687C7.15443 87.6431 7.24141 87.8477 7.24141 88.0827C7.24141 88.3176 7.15443 88.5184 6.98074 88.6852C6.81454 88.8596 6.61247 88.9467 6.3744 88.9467C6.13646 88.9467 5.93439 88.8596 5.76819 88.6852C5.54155 88.4655 5.2847 88.2949 4.99762 88.1736C4.71055 88.0524 4.40822 87.9917 4.09093 87.9917C3.75853 87.9917 3.44886 88.0542 3.16178 88.1793C2.87471 88.3044 2.62533 88.4748 2.41381 88.6909C2.20228 88.9069 2.03424 89.1589 1.90955 89.4469C1.78487 89.7349 1.72259 90.0419 1.72259 90.3678C1.72259 90.7014 1.78487 91.0121 1.90955 91.3001C2.03424 91.5881 2.20228 91.8382 2.41381 92.0505C2.62533 92.2627 2.87471 92.4313 3.16178 92.5563C3.44886 92.6814 3.75853 92.7439 4.09093 92.7439C4.40822 92.7439 4.71055 92.6853 4.99762 92.5677C5.2847 92.4502 5.54155 92.2778 5.76819 92.0505C5.93439 91.8761 6.13646 91.7889 6.3744 91.7889C6.61247 91.7889 6.81454 91.8761 6.98074 92.0505C7.15443 92.2247 7.24141 92.4294 7.24141 92.6643C7.24141 92.8993 7.15443 93.104 6.98074 93.2783C6.60301 93.6572 6.16852 93.9491 5.67754 94.1538C5.18642 94.366 4.65759 94.4721 4.09093 94.4721C3.5244 94.4721 2.99177 94.366 2.49316 94.1538C2.01715 93.9567 1.5828 93.6649 1.18996 93.2783C0.804602 92.8842 0.513715 92.4484 0.317295 91.9708C0.105766 91.4706 0 90.9363 0 90.3678C0 90.0949 0.0264053 89.824 0.0793582 89.5549C0.132311 89.2859 0.21153 89.0263 0.317295 88.7761C0.52134 88.2836 0.812227 87.8477 1.18996 87.4687C1.5828 87.0822 2.01715 86.7904 2.49316 86.5933Z" fill="white"/>
<path d="M10.641 86.5933C11.1623 86.3735 11.6949 86.2635 12.2389 86.2635C12.7828 86.2635 13.3154 86.3735 13.8368 86.5933C14.3203 86.7979 14.7508 87.0897 15.1285 87.4687C15.5063 87.8402 15.801 88.2759 16.0125 88.7761C16.1183 89.0263 16.1976 89.2859 16.2504 89.5549C16.3034 89.824 16.3298 90.0949 16.3298 90.3678C16.3298 90.9363 16.224 91.4706 16.0125 91.9708C15.8085 92.4559 15.5139 92.8918 15.1285 93.2783C14.7508 93.6572 14.3203 93.9491 13.8368 94.1538C13.338 94.366 12.8055 94.4721 12.2389 94.4721C11.6722 94.4721 11.1396 94.366 10.641 94.1538C10.1575 93.9491 9.72693 93.6572 9.3492 93.2783C8.97133 92.8918 8.67677 92.4559 8.46524 91.9708C8.25371 91.4706 8.14795 90.9363 8.14795 90.3678C8.14795 90.0949 8.17435 89.824 8.22731 89.5549C8.28012 89.2859 8.35948 89.0263 8.46524 88.7761C8.68425 88.2759 8.97895 87.8402 9.3492 87.4687C9.72693 87.0897 10.1575 86.7979 10.641 86.5933ZM9.8704 90.3678C9.8704 90.7014 9.93281 91.0121 10.0574 91.3001C10.182 91.5881 10.3521 91.8382 10.5674 92.0505C10.7826 92.2627 11.0338 92.4313 11.3209 92.5563C11.6081 92.6814 11.914 92.7439 12.2389 92.7439C12.5637 92.7439 12.8696 92.6814 13.1567 92.5563C13.4438 92.4313 13.695 92.2627 13.9103 92.0505C14.1257 91.8382 14.2957 91.5881 14.4204 91.3001C14.5449 91.0121 14.6074 90.7014 14.6074 90.3678C14.6074 90.0419 14.5449 89.7349 14.4204 89.4469C14.2957 89.1589 14.1257 88.9069 13.9103 88.6909C13.695 88.4748 13.4438 88.3044 13.1567 88.1793C12.8696 88.0542 12.5637 87.9917 12.2389 87.9917C11.914 87.9917 11.6081 88.0542 11.3209 88.1793C11.0338 88.3044 10.7826 88.4748 10.5674 88.6909C10.3521 88.9069 10.182 89.1589 10.0574 89.4469C9.93281 89.7349 9.8704 90.0419 9.8704 90.3678Z" fill="white"/>
<path d="M17.9616 87.2527C17.9616 87.0102 18.0448 86.8056 18.211 86.6389C18.3772 86.4721 18.5812 86.3887 18.823 86.3887C19.0647 86.3887 19.2686 86.4721 19.4348 86.6389C19.601 86.8056 19.6842 87.0102 19.6842 87.2527V92.6189H23.2878C23.5296 92.6189 23.7336 92.7023 23.8998 92.869C24.066 93.0358 24.149 93.2405 24.149 93.483C24.149 93.7256 24.066 93.9301 23.8998 94.0969C23.7336 94.2636 23.5296 94.347 23.2878 94.347H18.823C18.5812 94.347 18.3772 94.2636 18.211 94.0969C18.0448 93.9301 17.9616 93.7256 17.9616 93.483V87.2527Z" fill="white"/>
<path d="M25.2371 87.2527C25.2371 87.0102 25.3201 86.8056 25.4863 86.6389C25.6525 86.4721 25.8565 86.3887 26.0983 86.3887C26.34 86.3887 26.5439 86.4721 26.7101 86.6389C26.8763 86.8056 26.9595 87.0102 26.9595 87.2527V92.6189H30.5631C30.8049 92.6189 31.0089 92.7023 31.1751 92.869C31.3413 93.0358 31.4244 93.2405 31.4244 93.483C31.4244 93.7256 31.3413 93.9301 31.1751 94.0969C31.0089 94.2636 30.8049 94.347 30.5631 94.347H26.0983C25.8565 94.347 25.6525 94.2636 25.4863 94.0969C25.3201 93.9301 25.2371 93.7256 25.2371 93.483V87.2527Z" fill="white"/>
<path d="M32.5124 87.2527C32.5124 87.0102 32.5954 86.8056 32.7616 86.6389C32.9278 86.4721 33.1319 86.3887 33.3736 86.3887C33.6154 86.3887 33.8193 86.4721 33.9855 86.6389C34.1517 86.8056 34.2348 87.0102 34.2348 87.2527V93.483C34.2348 93.7256 34.1517 93.9301 33.9855 94.0969C33.8193 94.2636 33.6154 94.347 33.3736 94.347C33.1319 94.347 32.9278 94.2636 32.7616 94.0969C32.5954 93.9301 32.5124 93.7256 32.5124 93.483V87.2527Z" fill="white"/>
<path d="M41.5555 92.6189C41.7972 92.6189 42.0012 92.7023 42.1675 92.869C42.3337 93.0358 42.4167 93.2405 42.4167 93.483C42.4167 93.7256 42.3337 93.9301 42.1675 94.0969C42.0012 94.2636 41.7972 94.347 41.5555 94.347H37.0906C36.8489 94.347 36.6448 94.2636 36.4786 94.0969C36.3124 93.9301 36.2292 93.7256 36.2292 93.483V87.2527C36.2292 87.0102 36.3124 86.8056 36.4786 86.6389C36.6448 86.4721 36.8489 86.3887 37.0906 86.3887H41.5555C41.7972 86.3887 42.0012 86.4721 42.1675 86.6389C42.3337 86.8056 42.4167 87.0102 42.4167 87.2527C42.4167 87.4952 42.3337 87.6999 42.1675 87.8667C42.0012 88.0334 41.7972 88.1167 41.5555 88.1167H37.9518V89.5038H41.0115C41.2533 89.5038 41.4573 89.5872 41.6235 89.7539C41.7897 89.9207 41.8728 90.1253 41.8728 90.3678C41.8728 90.6105 41.7897 90.815 41.6235 90.9818C41.4573 91.1485 41.2533 91.2319 41.0115 91.2319H37.9518V92.6189H41.5555Z" fill="white"/>
<path d="M48.1282 87.2527C48.1282 87.0102 48.2113 86.8056 48.3775 86.6389C48.5437 86.4721 48.7477 86.3887 48.9895 86.3887C49.2312 86.3887 49.4351 86.4721 49.6013 86.6389C49.7675 86.8056 49.8507 87.0102 49.8507 87.2527V92.6189H53.4543C53.6961 92.6189 53.9001 92.7023 54.0663 92.869C54.2325 93.0358 54.3155 93.2405 54.3155 93.483C54.3155 93.7256 54.2325 93.9301 54.0663 94.0969C53.9001 94.2636 53.6961 94.347 53.4543 94.347H48.9895C48.7477 94.347 48.5437 94.2636 48.3775 94.0969C48.2113 93.9301 48.1282 93.7256 48.1282 93.483V87.2527Z" fill="white"/>
<path d="M62.6788 93.0851C62.7846 93.2973 62.8015 93.517 62.7298 93.7444C62.6581 93.9719 62.5163 94.1387 62.3048 94.2448C62.0932 94.3584 61.8742 94.3792 61.6476 94.3072C61.421 94.2353 61.2548 94.0932 61.149 93.881C61.1111 93.805 61.0696 93.7255 61.0243 93.6421C60.9488 93.5057 60.8392 93.2973 60.6957 93.0168H56.6614C56.5178 93.2973 56.4082 93.5057 56.3327 93.6421C56.2873 93.7255 56.2458 93.805 56.2081 93.881C56.1024 94.0932 55.9362 94.2353 55.7094 94.3072C55.4827 94.3792 55.2637 94.3584 55.0522 94.2448C54.8407 94.1387 54.699 93.9719 54.6272 93.7444C54.5554 93.517 54.5762 93.2973 54.6896 93.0851L57.9193 86.8548C57.9948 86.7108 58.1006 86.5971 58.2366 86.5138C58.3726 86.4303 58.5198 86.3887 58.6786 86.3887C58.8371 86.3887 58.9844 86.4303 59.1204 86.5138C59.2565 86.5971 59.3623 86.7108 59.4378 86.8548L62.6788 93.0851ZM59.9137 91.4024L58.6786 89.0264L57.4433 91.4024H59.9137Z" fill="white"/>
<path d="M67.7444 86.3887C68.0617 86.3887 68.36 86.4493 68.6396 86.5706C68.9191 86.6918 69.1628 86.8586 69.3705 87.0708C69.5782 87.283 69.7426 87.5294 69.8635 87.8099C69.9843 88.0902 70.0448 88.3897 70.0448 88.708C70.0448 88.9732 70.0051 89.2214 69.9257 89.4526C69.8464 89.6838 69.7313 89.8979 69.5802 90.0949C69.7917 90.3223 69.9579 90.582 70.0788 90.8738C70.1997 91.1657 70.2601 91.482 70.2601 91.8231C70.2601 92.1718 70.194 92.4996 70.0617 92.8066C69.9296 93.1134 69.7501 93.3806 69.5234 93.608C69.2968 93.8355 69.0305 94.0154 68.7245 94.148C68.4186 94.2807 68.0919 94.347 67.7444 94.347H64.8205C64.5788 94.347 64.3749 94.2636 64.2087 94.0969C64.0425 93.9301 63.9593 93.7256 63.9593 93.483V87.2527C63.9593 87.0102 64.0425 86.8056 64.2087 86.6389C64.3749 86.4721 64.5788 86.3887 64.8205 86.3887H67.7444ZM65.6819 88.1167V89.4015H67.7444C67.9029 89.4015 68.0389 89.339 68.1523 89.2139C68.2656 89.0888 68.3222 88.9391 68.3222 88.7648C68.3222 88.5904 68.2656 88.4389 68.1523 88.3101C68.0389 88.1812 67.9029 88.1167 67.7444 88.1167H65.6819ZM65.6819 90.8567V92.6189H67.7444C67.9634 92.6189 68.1503 92.5337 68.3052 92.3632C68.4601 92.1926 68.5375 91.986 68.5375 91.7435C68.5375 91.501 68.4601 91.2926 68.3052 91.1182C68.1503 90.9439 67.9634 90.8567 67.7444 90.8567H65.6819Z" fill="white"/>
<path d="M72.8665 86.7979C73.3803 86.4418 74.0261 86.2635 74.8043 86.2635C75.1897 86.2635 75.5862 86.3053 75.9941 86.3886C76.4022 86.4721 76.7534 86.5782 77.0481 86.707C77.2671 86.8131 77.4182 86.976 77.5014 87.1959C77.5846 87.4157 77.5731 87.6354 77.4674 87.8553C77.3692 88.075 77.2105 88.2266 76.9915 88.3101C76.7723 88.3934 76.5533 88.3859 76.3342 88.2873C76.1452 88.204 75.9093 88.1338 75.6259 88.077C75.3426 88.0201 75.0687 87.9917 74.8043 87.9917C74.6003 87.9917 74.4133 88.0106 74.2433 88.0485C74.0734 88.0864 73.9355 88.1433 73.8297 88.2191C73.6863 88.3252 73.6144 88.4655 73.6144 88.6397C73.6144 88.6928 73.6238 88.7458 73.6428 88.7989C73.6617 88.8519 73.7201 88.9087 73.8184 88.9694C73.9014 89.0225 74.0281 89.0793 74.198 89.1399C74.368 89.2006 74.6079 89.2537 74.9176 89.2992C75.7789 89.4279 76.4589 89.663 76.9575 90.004C77.2671 90.2162 77.5165 90.474 77.7054 90.7772C77.9019 91.0955 78 91.463 78 91.8799C78 92.2968 77.9093 92.6758 77.728 93.0168C77.5467 93.3579 77.2861 93.6459 76.9462 93.8809C76.372 94.275 75.6581 94.4721 74.8043 94.4721C74.1621 94.4721 73.5918 94.3773 73.0932 94.1878C72.7229 94.0438 72.3754 93.8468 72.0506 93.5966C71.8617 93.445 71.7521 93.2518 71.7219 93.0168C71.6917 92.7819 71.7521 92.5697 71.9032 92.3801C72.0468 92.1907 72.2356 92.0808 72.4699 92.0505C72.704 92.0201 72.9157 92.0808 73.1045 92.2324C73.1725 92.2853 73.2574 92.3423 73.3595 92.4029C73.4614 92.4636 73.5805 92.5185 73.7165 92.5677C73.8525 92.617 74.0092 92.6586 74.1867 92.6928C74.3642 92.7269 74.5701 92.7439 74.8043 92.7439C75.2954 92.7439 75.6845 92.6491 75.9716 92.4597C76.1755 92.3233 76.2775 92.1301 76.2775 91.8799C76.2775 91.8193 76.2624 91.7511 76.2322 91.6753C76.202 91.5995 76.1226 91.5199 75.9941 91.4365C75.8884 91.3683 75.7336 91.2944 75.5296 91.2148C75.3257 91.1353 75.0423 91.0689 74.6796 91.0159C73.9393 90.9021 73.3424 90.7051 72.8891 90.4247C72.5795 90.22 72.3414 89.9775 72.1752 89.6971C71.9864 89.3939 71.8919 89.0415 71.8919 88.6397C71.8919 88.2532 71.9751 87.9026 72.1413 87.5881C72.3075 87.2735 72.5492 87.0101 72.8665 86.7979Z" fill="white"/>
</svg>
