<svg width="78" height="95" viewBox="0 0 78 95" fill="none" xmlns="http://www.w3.org/2000/svg">
<path d="M31.169 0.0106401C29.5569 0.0143259 27.7908 0.522393 25.9487 1.53895C21.5272 3.97864 17.6836 2.08756 18.1691 6.53158C18.5768 10.2638 17.0255 11.0892 18.1646 12.069C19.8719 13.5376 22.5755 12.6061 27.7314 5.80067C27.2243 6.51698 26.5573 7.6203 26.1295 8.75976C27.8044 9.17739 29.408 10.7433 29.9157 11.945C27.5588 9.67808 25.7295 9.74613 24.1659 12.5253C25.4526 12.8568 26.6022 13.1917 27.6167 14.6473C24.7675 13.0683 20.8447 14.9308 20.5871 17.7306C21.868 16.6813 23.7872 16.5531 24.6205 17.0706C23.9508 16.996 22.7308 17.61 22.4627 18.7008C25.1244 17.9566 30.3692 20.2631 28.1197 26.3957C27.0518 13.7394 10.6146 19.7032 11.8985 41.6215C9.16217 43.1402 7.22678 46.6087 9.19352 52.6212C10.4527 56.4701 13.1441 58.2155 15.9538 58.637C18.6174 64.6467 22.09 68.385 25.406 70.2215C25.1048 71.9117 23.2634 76.4041 18.0543 76.0336C19.5303 71.971 14.3531 72.4593 15.8789 76.0071C15.147 76.4045 13.7623 76.6357 13.112 76.0558C14.5838 72.073 9.54611 72.3694 10.8263 75.9672C9.93994 76.3866 8.80689 76.4045 8.17414 75.9717C9.99685 72.9739 4.94486 71.7487 5.98994 75.9273C5.20157 76.4294 4.3364 76.5654 3.4482 75.9805C4.6013 72.9066 2.19541 72.849 1.44475 73.9206C0.432993 75.3652 2.16533 80.3851 6.92982 77.6816C8.42831 78.753 10.4025 78.6823 11.9382 77.6462C13.08 78.9118 15.766 78.5682 16.854 77.6019C21.8151 80.2928 27.1671 73.9604 27.6784 71.2005C34.2175 73.2065 39.141 67.6291 34.0903 57.7865C42.5216 58.4681 46.6599 50.814 48.0433 46.6274C45.9269 47.7573 44.5583 49.2545 43.3394 50.6985C40.876 53.6166 39.0241 56.3237 32.8502 55.3855C31.2123 52.3598 27.6364 53.2988 24.7793 54.8095C25.236 53.5364 24.8585 52.1236 23.1598 50.8359C23.8321 49.7503 23.7899 48.4009 23.1995 47.3273C23.4232 47.5133 23.6409 47.6633 23.9321 47.7836C23.3156 45.7379 23.7945 42.0071 25.0132 40.8595C25.8255 42.9248 26.9267 44.6123 30.3394 45.232C24.5549 53.2781 39.2637 58.918 41.3536 48.3728C53.3449 38.8249 47.1847 34.141 44.9147 37.8294C44.2979 38.8315 39.2833 46.8195 32.4089 42.2638C28.523 45.005 23.5036 38.5703 27.983 32.602C30.3745 29.4156 31.1961 24.0654 31.1337 23.2415C31.4049 23.1372 31.9678 22.7794 32.2236 22.5548C31.8668 23.8479 33.3647 24.186 33.9049 23.9059C37.9119 18.1699 31.1287 17.7967 30.2731 22.422C29.914 12.4371 40.6498 14.299 37.4086 19.7905C37.3937 19.8157 30.0721 31.1314 30.0746 31.1313C30.8299 31.0744 31.5381 30.8889 32.7532 30.9408C32.7927 30.9425 40.4839 19.3132 40.5196 19.2633C46.4142 11.0376 55.5398 20.2553 51.5735 25.6514C54.9037 27.0188 57.7424 30.7142 58.2279 32.9698C55.8057 29.7926 51.61 27.9658 48.3522 30.0061C55.0548 30.7071 58.5707 38.0337 58.1131 41.462C53.605 33.2831 50.5177 36.6829 51.5735 37.5459C53.3434 38.9926 55.7625 39.9459 56.0303 45.9585C52.5053 40.2473 48.7325 41.9765 51.1278 44.1421C51.714 44.6722 56.4111 49.7141 52.1118 56.6835C50.6858 58.9951 54.0785 60.3 56.5554 53.0154C55.3844 60.8356 52.1891 60.0322 52.2575 61.614C52.4197 65.3688 64.0934 56.4785 61.9655 44.4611C69.3773 65.8006 50.4116 69.8285 49.9672 70.7796C48.3159 74.314 62.304 70.8597 66.9828 58.4644C67.9092 70.0167 60.6527 75.3297 60.4828 76.2152C59.5665 80.9904 74.4535 68.59 71.2323 52.3775C75.0152 61.1719 69.6862 66.2882 71.9647 66.5756C76.4756 67.1445 84.4696 29.2983 60.2137 20.7651C63.7182 19.9347 70.4545 23.251 72.7149 28.2385C73.3427 23.688 68.6158 18.1342 65.178 18.0185C66.7095 17.6675 68.0461 17.6239 70.076 19.5779C68.7723 14.9293 62.8037 13.714 59.3532 15.1523C60.0706 13.8638 63.503 13.3379 64.4807 13.6196C63.5123 12.883 62.3849 11.1073 62.12 10.0224C60.8397 9.4222 58.703 9.88462 57.8969 10.4654C58.5566 9.65384 59.9198 8.4374 62.0714 8.62693C61.6046 8.05196 61.0794 6.78222 60.9638 6.33666C67.3005 16.9943 71.7655 13.4808 70.7424 11.0325C69.7948 8.76458 71.8019 6.89577 70.385 4.90574C68.719 2.56572 67.6795 4.74428 62.0758 1.28648C56.5348 -2.13277 50.7402 2.24633 50.3335 7.7011C45.2012 7.22266 42.073 10.8631 41.3579 13.0834C41.2006 10.0858 43.4694 7.71088 44.6102 7.04107C42.7717 6.7275 40.9312 6.53641 38.675 7.32459C37.5095 2.44253 34.7155 0.00255982 31.169 0.0106401ZM46.6885 20.7341C43.7467 20.9563 43.9017 24.5946 43.485 25.8418C44.3011 24.4048 48.9706 26.485 48.0124 23.2857C48.6345 24.2754 49.5815 24.6102 50.9557 24.9825C50.3827 24.5667 49.7148 20.5054 46.6885 20.7341ZM33.3091 21.0088C33.5417 21.0088 33.7327 21.1962 33.7327 21.4297C33.7327 21.663 33.5417 21.8549 33.3091 21.8549C33.0767 21.8549 32.89 21.663 32.89 21.4297C32.89 21.1962 33.0767 21.0088 33.3091 21.0088ZM21.8625 22.0143C22.5307 22.0054 24.0952 22.1434 24.797 22.2004C22.7216 26.5549 23.2961 32.1339 24.466 35.4062C23.6974 35.4087 22.5453 35.4136 21.6109 35.4195C20.3098 32.2569 19.9665 26.0267 21.8625 22.0143ZM46.159 22.4264C46.3916 22.4264 46.5826 22.6138 46.5826 22.8473C46.5826 23.0806 46.3916 23.2725 46.159 23.2725C45.9266 23.2725 45.7398 23.0806 45.7399 22.8473C45.7399 22.6138 45.9266 22.4264 46.159 22.4264ZM19.2104 23.6136C18.1057 26.3232 18.1032 31.4288 19.2193 34.817C17.8935 34.9749 16.3511 33.6669 15.7994 33.1691C15.7367 33.9771 16.7138 36.0848 17.6396 36.7927C17.3912 37.9753 17.2933 39.4188 17.2777 40.9615C16.294 40.6772 15.1474 40.6256 13.9902 40.8639C13.8305 33.6664 15.4064 27.0159 19.2104 23.6136ZM31.5176 33.1336C29.1644 33.124 27.0238 34.2012 27.4579 36.6422C28.5775 42.938 34.5632 42.7462 36.6231 37.9668C37.9207 34.956 34.543 33.1461 31.5176 33.1336ZM19.6915 37.701C20.6866 37.8158 22.706 37.8558 23.6937 37.7142C22.1644 39.3674 20.6354 43.6216 22.5244 46.4324C21.8001 45.7647 20.7512 45.3763 19.4443 45.5332C19.9859 44.9184 19.9304 42.973 19.2855 42.1708C19.2914 40.5024 19.4194 38.9627 19.6915 37.701ZM15.698 42.7512C16.8501 42.7163 17.7407 43.2234 17.6924 44.2972C17.6007 46.3401 14.1347 43.802 11.4308 50.6453C9.35266 45.5366 13.163 42.8277 15.698 42.7512ZM42.0773 43.8986C41.8691 44.1747 41.7715 44.8039 41.6713 45.2807C36.9775 47.5782 41.121 48.9439 37.0731 51.4649C34.4215 53.1164 27.9408 50.4989 33.0223 45.0502C36.5707 46.7762 40.6924 45.0912 42.0773 43.8986ZM18.9059 47.3717C20.7262 47.3842 22.1274 48.1993 21.4389 49.5911C20.5637 51.3602 16.7912 48.2145 14.0872 55.0576C11.6795 49.5619 15.8722 47.3507 18.9059 47.3717ZM20.8211 52.2491C21.9807 52.3385 22.8683 53.0024 22.723 54.2558C22.5734 55.545 18.7687 56.8105 16.2406 56.4973C16.1949 53.544 18.8884 52.0998 20.8211 52.2491ZM30.0834 55.4874C29.6438 59.6126 31.4587 65.2601 33.5122 68.1793C32.83 68.6037 32.0192 68.9549 31.2572 69.0032C29.1994 67.1316 26.5803 60.6634 27.4049 55.8861C28.0928 55.6081 29.2531 55.4558 30.0834 55.4874ZM25.3618 56.8696C24.9836 60.2073 25.8645 65.5694 28.6802 69.3311C24.1699 68.714 20.4455 64.4499 17.8689 58.7035C18.848 58.6525 19.7975 58.4746 20.6755 58.1719C20.9604 58.8074 21.257 59.4206 21.5712 59.975C22.4313 58.4761 23.5195 57.5395 25.3618 56.8696Z" fill="#010204"/>
<path d="M40.8068 65.0596C40.8068 64.2096 41.4932 63.5205 42.3397 63.5205C43.1864 63.5205 43.8728 64.2096 43.8728 65.0596C43.8728 65.9094 43.1864 66.5985 42.3397 66.5985C41.4932 66.5985 40.8068 65.9094 40.8068 65.0596Z" fill="#010204"/>
<path d="M41.572 68.5382C40.7253 68.5382 40.0408 69.2255 40.0408 70.0754C40.0408 70.9254 40.7253 71.6171 41.572 71.6171H43.1033C43.9498 71.6171 44.6389 70.9254 44.6389 70.0754C44.6389 69.2255 43.9498 68.5382 43.1033 68.5382H41.572Z" fill="#010204"/>
<path d="M20.9579 33.116C21.1328 33.974 21.3448 34.7729 21.6108 35.4196C22.5452 35.4136 23.6973 35.4088 24.4659 35.4062C24.2261 34.7356 24.0246 33.9502 23.8526 33.116H20.9579Z" fill="white"/>
<path d="M40.8063 73.5352C39.9596 73.5352 39.275 74.2268 39.275 75.0768C39.275 75.9268 39.9596 76.614 40.8063 76.614H43.8732C44.7198 76.614 45.4043 75.9268 45.4043 75.0768C45.4043 74.2268 44.7198 73.5352 43.8732 73.5352H40.8063Z" fill="#010204"/>
<path d="M20.3932 61.2908C20.2683 61.9077 20.2751 62.5584 20.3754 63.2179C22.6601 66.5774 25.4665 68.8915 28.6802 69.3312C27.9243 68.3213 27.3169 67.1924 26.8269 66.022C24.6225 65.6816 22.3456 64.3518 20.3932 61.2908ZM31.9191 65.2246C31.104 65.5923 30.2156 65.8815 29.276 66.022C29.9117 67.3323 30.6071 68.4122 31.2573 69.0033C32.0192 68.955 32.83 68.6039 33.5122 68.1794C32.9469 67.3759 32.4061 66.3529 31.9191 65.2246Z" fill="white"/>
<path d="M48.0433 46.6276C46.7826 50.443 43.2229 57.1189 36.2215 57.7601L36.2084 60.6263C36.2084 60.6263 49.0468 59.2841 48.0433 46.6276Z" fill="white"/>
<path d="M34.8756 45.6262C34.5299 46.8129 34.0258 48.7315 34.527 48.9797C34.975 49.2017 35.9289 46.8315 36.345 45.7636C35.8591 45.7633 35.3694 45.7175 34.8756 45.6262Z" fill="white"/>
<path d="M2.49316 86.6613C3.01436 86.4413 3.547 86.3313 4.09093 86.3313C4.64249 86.3313 5.17131 86.4413 5.67754 86.6613C6.16852 86.866 6.60301 87.158 6.98074 87.5373C7.15443 87.7118 7.24141 87.9165 7.24141 88.1516C7.24141 88.3867 7.15443 88.5877 6.98074 88.7545C6.81454 88.929 6.61247 89.0162 6.3744 89.0162C6.13646 89.0162 5.93439 88.929 5.76819 88.7545C5.54155 88.5347 5.2847 88.364 4.99762 88.2426C4.71055 88.1213 4.40822 88.0606 4.09093 88.0606C3.75853 88.0606 3.44886 88.1231 3.16178 88.2483C2.87471 88.3735 2.62533 88.544 2.41381 88.7602C2.20228 88.9764 2.03424 89.2286 1.90955 89.5168C1.78487 89.805 1.72259 90.1122 1.72259 90.4382C1.72259 90.7721 1.78487 91.0829 1.90955 91.3711C2.03424 91.6593 2.20228 91.9097 2.41381 92.122C2.62533 92.3344 2.87471 92.5031 3.16178 92.6283C3.44886 92.7534 3.75853 92.816 4.09093 92.816C4.40822 92.816 4.71055 92.7573 4.99762 92.6396C5.2847 92.5221 5.54155 92.3496 5.76819 92.122C5.93439 91.9475 6.13646 91.8603 6.3744 91.8603C6.61247 91.8603 6.81454 91.9475 6.98074 92.122C7.15443 92.2964 7.24141 92.5012 7.24141 92.7363C7.24141 92.9715 7.15443 93.1763 6.98074 93.3507C6.60301 93.7299 6.16852 94.0219 5.67754 94.2267C5.18642 94.4391 4.65759 94.5453 4.09093 94.5453C3.5244 94.5453 2.99177 94.4391 2.49316 94.2267C2.01715 94.0296 1.5828 93.7375 1.18996 93.3507C0.804602 92.9563 0.513715 92.5202 0.317295 92.0424C0.105766 91.5418 0 91.0071 0 90.4382C0 90.1652 0.0264053 89.8941 0.0793582 89.6248C0.132311 89.3556 0.21153 89.0959 0.317295 88.8456C0.52134 88.3527 0.812227 87.9165 1.18996 87.5373C1.5828 87.1505 2.01715 86.8585 2.49316 86.6613Z" fill="#010204"/>
<path d="M10.641 86.6613C11.1623 86.4413 11.6949 86.3313 12.2389 86.3313C12.7828 86.3313 13.3154 86.4413 13.8368 86.6613C14.3203 86.866 14.7508 87.158 15.1285 87.5373C15.5063 87.9089 15.801 88.345 16.0125 88.8456C16.1183 89.0959 16.1976 89.3556 16.2504 89.6248C16.3034 89.8941 16.3298 90.1652 16.3298 90.4382C16.3298 91.0071 16.224 91.5418 16.0125 92.0424C15.8085 92.5278 15.5139 92.9639 15.1285 93.3507C14.7508 93.7299 14.3203 94.0219 13.8368 94.2267C13.338 94.4391 12.8055 94.5453 12.2389 94.5453C11.6722 94.5453 11.1396 94.4391 10.641 94.2267C10.1575 94.0219 9.72693 93.7299 9.3492 93.3507C8.97133 92.9639 8.67677 92.5278 8.46524 92.0424C8.25371 91.5418 8.14795 91.0071 8.14795 90.4382C8.14795 90.1652 8.17435 89.8941 8.22731 89.6248C8.28012 89.3556 8.35948 89.0959 8.46524 88.8456C8.68425 88.345 8.97895 87.9089 9.3492 87.5373C9.72693 87.158 10.1575 86.866 10.641 86.6613ZM9.8704 90.4382C9.8704 90.7721 9.93281 91.0829 10.0574 91.3711C10.182 91.6593 10.3521 91.9097 10.5674 92.122C10.7826 92.3344 11.0338 92.5031 11.3209 92.6283C11.6081 92.7534 11.914 92.816 12.2389 92.816C12.5637 92.816 12.8696 92.7534 13.1567 92.6283C13.4438 92.5031 13.695 92.3344 13.9103 92.122C14.1257 91.9097 14.2957 91.6593 14.4204 91.3711C14.5449 91.0829 14.6074 90.7721 14.6074 90.4382C14.6074 90.1122 14.5449 89.805 14.4204 89.5168C14.2957 89.2286 14.1257 88.9764 13.9103 88.7602C13.695 88.544 13.4438 88.3735 13.1567 88.2483C12.8696 88.1231 12.5637 88.0606 12.2389 88.0606C11.914 88.0606 11.6081 88.1231 11.3209 88.2483C11.0338 88.3735 10.7826 88.544 10.5674 88.7602C10.3521 88.9764 10.182 89.2286 10.0574 89.5168C9.93281 89.805 9.8704 90.1122 9.8704 90.4382Z" fill="#010204"/>
<path d="M17.9615 87.321C17.9615 87.0783 18.0447 86.8736 18.2109 86.7068C18.3771 86.5399 18.5812 86.4564 18.8229 86.4564C19.0647 86.4564 19.2686 86.5399 19.4348 86.7068C19.601 86.8736 19.6841 87.0783 19.6841 87.321V92.6907H23.2878C23.5295 92.6907 23.7336 92.7742 23.8998 92.9411C24.066 93.1079 24.149 93.3128 24.149 93.5555C24.149 93.7982 24.066 94.0029 23.8998 94.1697C23.7336 94.3366 23.5295 94.4201 23.2878 94.4201H18.8229C18.5812 94.4201 18.3771 94.3366 18.2109 94.1697C18.0447 94.0029 17.9615 93.7982 17.9615 93.5555V87.321Z" fill="#010204"/>
<path d="M25.2371 87.321C25.2371 87.0783 25.3201 86.8736 25.4863 86.7068C25.6525 86.5399 25.8565 86.4564 26.0983 86.4564C26.34 86.4564 26.5439 86.5399 26.7101 86.7068C26.8763 86.8736 26.9595 87.0783 26.9595 87.321V92.6907H30.5631C30.8049 92.6907 31.0089 92.7742 31.1751 92.9411C31.3413 93.1079 31.4244 93.3128 31.4244 93.5555C31.4244 93.7982 31.3413 94.0029 31.1751 94.1697C31.0089 94.3366 30.8049 94.4201 30.5631 94.4201H26.0983C25.8565 94.4201 25.6525 94.3366 25.4863 94.1697C25.3201 94.0029 25.2371 93.7982 25.2371 93.5555V87.321Z" fill="#010204"/>
<path d="M32.5123 87.321C32.5123 87.0783 32.5954 86.8736 32.7616 86.7068C32.9278 86.5399 33.1318 86.4564 33.3736 86.4564C33.6153 86.4564 33.8192 86.5399 33.9854 86.7068C34.1516 86.8736 34.2348 87.0783 34.2348 87.321V93.5555C34.2348 93.7982 34.1516 94.0029 33.9854 94.1697C33.8192 94.3366 33.6153 94.4201 33.3736 94.4201C33.1318 94.4201 32.9278 94.3366 32.7616 94.1697C32.5954 94.0029 32.5123 93.7982 32.5123 93.5555V87.321Z" fill="#010204"/>
<path d="M41.5555 92.6907C41.7972 92.6907 42.0012 92.7742 42.1675 92.9411C42.3337 93.1079 42.4167 93.3128 42.4167 93.5555C42.4167 93.7982 42.3337 94.0029 42.1675 94.1697C42.0012 94.3366 41.7972 94.4201 41.5555 94.4201H37.0906C36.8489 94.4201 36.6448 94.3366 36.4786 94.1697C36.3124 94.0029 36.2292 93.7982 36.2292 93.5555V87.321C36.2292 87.0783 36.3124 86.8736 36.4786 86.7068C36.6448 86.5399 36.8489 86.4564 37.0906 86.4564H41.5555C41.7972 86.4564 42.0012 86.5399 42.1675 86.7068C42.3337 86.8736 42.4167 87.0783 42.4167 87.321C42.4167 87.5637 42.3337 87.7685 42.1675 87.9354C42.0012 88.1022 41.7972 88.1856 41.5555 88.1856H37.9518V89.5736H41.0115C41.2533 89.5736 41.4573 89.6571 41.6235 89.8239C41.7897 89.9908 41.8728 90.1955 41.8728 90.4382C41.8728 90.681 41.7897 90.8857 41.6235 91.0526C41.4573 91.2194 41.2533 91.3029 41.0115 91.3029H37.9518V92.6907H41.5555Z" fill="#010204"/>
<path d="M48.1282 87.321C48.1282 87.0783 48.2112 86.8736 48.3774 86.7068C48.5436 86.5399 48.7477 86.4564 48.9894 86.4564C49.2311 86.4564 49.4351 86.5399 49.6013 86.7068C49.7675 86.8736 49.8506 87.0783 49.8506 87.321V92.6907H53.4542C53.696 92.6907 53.9 92.7742 54.0662 92.9411C54.2324 93.1079 54.3155 93.3128 54.3155 93.5555C54.3155 93.7982 54.2324 94.0029 54.0662 94.1697C53.9 94.3366 53.696 94.4201 53.4542 94.4201H48.9894C48.7477 94.4201 48.5436 94.3366 48.3774 94.1697C48.2112 94.0029 48.1282 93.7982 48.1282 93.5555V87.321Z" fill="#010204"/>
<path d="M62.6788 93.1573C62.7846 93.3696 62.8015 93.5895 62.7298 93.817C62.6581 94.0447 62.5163 94.2115 62.3048 94.3177C62.0932 94.4314 61.8742 94.4522 61.6476 94.3802C61.421 94.3082 61.2548 94.166 61.149 93.9537C61.1111 93.8777 61.0696 93.7982 61.0243 93.7147C60.9488 93.5781 60.8392 93.3696 60.6957 93.0889H56.6614C56.5178 93.3696 56.4082 93.5781 56.3327 93.7147C56.2873 93.7982 56.2458 93.8777 56.2081 93.9537C56.1024 94.166 55.9362 94.3082 55.7094 94.3802C55.4827 94.4522 55.2637 94.4314 55.0522 94.3177C54.8407 94.2115 54.699 94.0447 54.6272 93.817C54.5554 93.5895 54.5762 93.3696 54.6896 93.1573L57.9193 86.9228C57.9948 86.7788 58.1006 86.6649 58.2366 86.5816C58.3726 86.4981 58.5198 86.4564 58.6786 86.4564C58.8371 86.4564 58.9844 86.4981 59.1204 86.5816C59.2565 86.6649 59.3623 86.7788 59.4378 86.9228L62.6788 93.1573ZM59.9137 91.4734L58.6786 89.0958L57.4433 91.4734H59.9137Z" fill="#010204"/>
<path d="M67.7444 86.4564C68.0617 86.4564 68.3601 86.5171 68.6397 86.6384C68.9191 86.7598 69.1629 86.9266 69.3706 87.139C69.5783 87.3513 69.7427 87.5979 69.8635 87.8786C69.9844 88.1591 70.0448 88.4588 70.0448 88.7773C70.0448 89.0427 70.0052 89.291 69.9258 89.5224C69.8464 89.7537 69.7314 89.9679 69.5803 90.1651C69.7918 90.3927 69.958 90.6525 70.0789 90.9445C70.1997 91.2366 70.2602 91.5531 70.2602 91.8945C70.2602 92.2433 70.1941 92.5714 70.0618 92.8786C69.9296 93.1856 69.7501 93.453 69.5235 93.6805C69.2969 93.9082 69.0305 94.0882 68.7245 94.2209C68.4187 94.3537 68.0919 94.4201 67.7444 94.4201H64.8206C64.5788 94.4201 64.3749 94.3366 64.2087 94.1697C64.0425 94.0029 63.9594 93.7982 63.9594 93.5555V87.321C63.9594 87.0783 64.0425 86.8736 64.2087 86.7068C64.3749 86.5399 64.5788 86.4564 64.8206 86.4564H67.7444ZM65.6819 88.1856V89.4712H67.7444C67.903 89.4712 68.039 89.4087 68.1524 89.2835C68.2656 89.1584 68.3222 89.0085 68.3222 88.8342C68.3222 88.6597 68.2656 88.508 68.1524 88.3791C68.039 88.2501 67.903 88.1856 67.7444 88.1856H65.6819ZM65.6819 90.9274V92.6907H67.7444C67.9634 92.6907 68.1504 92.6055 68.3053 92.4349C68.4602 92.2642 68.5376 92.0575 68.5376 91.8148C68.5376 91.5721 68.4602 91.3636 68.3053 91.1891C68.1504 91.0147 67.9634 90.9274 67.7444 90.9274H65.6819Z" fill="#010204"/>
<path d="M72.8665 86.866C73.3803 86.5096 74.0261 86.3313 74.8043 86.3313C75.1897 86.3313 75.5862 86.3731 75.9941 86.4565C76.4022 86.54 76.7534 86.6461 77.0481 86.775C77.2671 86.8812 77.4182 87.0442 77.5014 87.2642C77.5846 87.4842 77.5731 87.7041 77.4674 87.9241C77.3692 88.144 77.2105 88.2957 76.9915 88.3792C76.7723 88.4625 76.5533 88.455 76.3342 88.3563C76.1452 88.273 75.9093 88.2028 75.6259 88.146C75.3426 88.089 75.0687 88.0606 74.8043 88.0606C74.6003 88.0606 74.4133 88.0795 74.2433 88.1175C74.0734 88.1553 73.9355 88.2123 73.8297 88.2882C73.6863 88.3943 73.6144 88.5347 73.6144 88.709C73.6144 88.7622 73.6238 88.8152 73.6428 88.8684C73.6617 88.9214 73.7201 88.9782 73.8184 89.0389C73.9014 89.0921 74.0281 89.1489 74.198 89.2096C74.368 89.2703 74.6079 89.3234 74.9176 89.3689C75.7789 89.4978 76.4589 89.733 76.9575 90.0742C77.2671 90.2865 77.5165 90.5445 77.7054 90.8479C77.9019 91.1664 78 91.5342 78 91.9514C78 92.3686 77.9093 92.7478 77.728 93.089C77.5467 93.4303 77.2861 93.7185 76.9462 93.9537C76.372 94.3481 75.6581 94.5453 74.8043 94.5453C74.1621 94.5453 73.5918 94.4504 73.0932 94.2608C72.7229 94.1167 72.3754 93.9196 72.0506 93.6692C71.8617 93.5175 71.7521 93.3242 71.7219 93.089C71.6917 92.8539 71.7521 92.6416 71.9032 92.4519C72.0468 92.2624 72.2356 92.1524 72.4699 92.122C72.704 92.0917 72.9157 92.1524 73.1045 92.3041C73.1725 92.3571 73.2574 92.4141 73.3595 92.4747C73.4614 92.5354 73.5805 92.5904 73.7165 92.6396C73.8525 92.6889 74.0092 92.7306 74.1867 92.7648C74.3642 92.7989 74.5701 92.816 74.8043 92.816C75.2954 92.816 75.6845 92.7211 75.9716 92.5316C76.1755 92.3951 76.2775 92.2017 76.2775 91.9514C76.2775 91.8907 76.2624 91.8225 76.2322 91.7467C76.202 91.6708 76.1226 91.5912 75.9941 91.5077C75.8884 91.4395 75.7336 91.3655 75.5296 91.2858C75.3257 91.2063 75.0423 91.1398 74.6796 91.0868C73.9393 90.9729 73.3424 90.7757 72.8891 90.4952C72.5795 90.2904 72.3414 90.0477 72.1752 89.7671C71.9864 89.4638 71.8919 89.1111 71.8919 88.709C71.8919 88.3223 71.9751 87.9715 72.1413 87.6568C72.3075 87.3419 72.5492 87.0784 72.8665 86.866Z" fill="#010204"/>
</svg>
